<?xml version="1.0" standalone="no"?>
<!DOCTYPE svg PUBLIC "-//W3C//DTD SVG 20010904//EN"
 "http://www.w3.org/TR/2001/REC-SVG-20010904/DTD/svg10.dtd">
<svg version="1.0" xmlns="http://www.w3.org/2000/svg"
 width="314.000000pt" height="314.000000pt" viewBox="0 0 314.000000 314.000000"
 preserveAspectRatio="xMidYMid meet">
<metadata>
Created by potrace 1.14, written by Peter Selinger 2001-2017
</metadata>
<g transform="translate(0.000000,314.000000) scale(0.100000,-0.100000)"
fill="#000000" stroke="none">
<path d="M1600 3121 c-54 -18 -111 -46 -160 -81 -67 -47 -200 -93 -326 -114
-49 -8 -105 -21 -124 -29 -43 -19 -91 -68 -118 -122 -40 -77 -78 -107 -179
-141 -88 -30 -152 -88 -190 -174 -58 -133 -65 -140 -220 -241 -118 -77 -135
-107 -132 -236 4 -178 37 -319 119 -508 44 -100 56 -144 90 -330 18 -95 20
-103 36 -153 37 -110 99 -210 179 -285 201 -192 199 -189 201 -355 2 -138 11
-172 76 -282 l39 -65 -5 40 c-3 22 -10 63 -16 90 -7 28 -15 64 -18 80 -9 41
-9 166 1 188 7 18 9 18 40 -3 77 -51 173 -79 321 -94 52 -6 111 -25 79 -26
-21 0 -145 -80 -187 -119 -36 -33 -86 -120 -86 -148 0 -10 65 -13 294 -13
l294 0 8 67 c15 129 9 170 -29 202 -27 22 -21 27 47 39 88 16 87 17 81 -20 -2
-18 -7 -62 -10 -98 -3 -36 -8 -91 -11 -122 l-6 -58 40 0 c23 0 44 6 48 12 5 7
8 87 8 178 l1 166 37 49 c45 62 79 94 104 99 128 25 250 77 355 153 l47 33 13
-33 c31 -74 37 -138 37 -357 -1 -229 2 -284 13 -273 7 8 11 26 26 135 16 109
7 357 -17 464 -10 43 -9 71 5 113 3 10 31 40 63 67 192 165 238 238 393 617
l123 302 0 90 c1 122 -16 156 -141 277 -158 154 -223 212 -251 225 -26 12
-182 11 -402 -3 -89 -5 -104 -12 -337 -158 -176 -110 -241 -166 -272 -237 -22
-49 -19 -111 7 -149 28 -40 121 -80 226 -98 119 -20 186 -11 371 54 72 25 137
48 145 50 12 4 15 -3 12 -39 -4 -42 -1 -47 52 -100 31 -32 54 -57 51 -57 -2 0
-28 9 -56 20 -29 12 -78 27 -110 35 l-58 13 -6 -31 c-3 -18 -6 -53 -7 -79 l-3
-48 -49 61 -50 61 -60 -6 c-34 -3 -70 -8 -81 -10 -11 -2 -58 -7 -104 -10 -157
-12 -205 -60 -231 -231 -14 -89 -11 -242 7 -320 8 -33 16 -71 19 -85 11 -49
-44 43 -60 101 -22 80 -28 127 -30 255 -3 129 -8 139 -67 129 -42 -8 -57 -15
-169 -91 -54 -36 -126 -74 -166 -88 -85 -29 -122 -47 -163 -82 -27 -22 -31
-23 -30 -7 0 10 6 34 13 53 l13 35 -70 53 c-39 28 -86 66 -104 83 -46 42 -90
58 -129 48 -16 -5 -75 -38 -129 -74 -118 -78 -148 -74 -68 8 82 85 123 131
123 138 0 4 -28 19 -62 33 l-63 26 45 -6 c25 -4 61 -6 80 -5 64 2 132 -25 185
-74 68 -63 161 -133 209 -157 99 -51 247 -20 318 66 20 24 23 67 6 84 -9 9
-16 3 -28 -30 -12 -35 -24 -47 -60 -65 -79 -39 -157 -45 -212 -17 -32 16 -80
63 -118 115 l-19 25 38 1 c46 1 70 13 123 61 44 40 78 99 78 136 0 14 4 35 9
49 18 46 -81 200 -166 258 -25 18 -80 45 -120 60 -41 15 -97 45 -126 67 -98
74 -180 101 -251 81 -16 -5 -31 -7 -33 -5 -2 2 19 39 47 82 27 44 54 89 60
102 12 27 27 29 35 3 10 -32 112 -129 182 -175 38 -24 119 -64 182 -89 l114
-46 22 -73 c41 -139 137 -294 270 -434 40 -42 111 -59 152 -35 16 9 16 10 1
11 -32 0 -107 39 -137 70 -28 30 -231 370 -231 387 0 4 10 20 23 34 23 28 74
91 94 118 9 13 10 8 3 -24 -5 -22 -10 -44 -10 -48 0 -15 93 44 138 87 46 44
92 126 92 164 0 71 -55 110 -193 136 -75 15 -407 102 -414 110 -2 2 9 36 26
76 17 40 31 79 32 89 0 9 11 -15 23 -52 13 -37 25 -69 27 -71 25 -21 126 -47
359 -91 80 -16 146 -29 148 -30 1 -1 5 -28 7 -61 11 -121 55 -244 113 -313
l27 -33 -1 43 c-1 45 -13 159 -20 194 -3 11 -7 36 -10 55 -3 19 -14 44 -25 56
-10 11 -19 32 -19 46 0 67 205 167 345 168 l40 0 -24 19 c-63 49 -245 149
-323 178 -92 35 -118 40 -208 42 l-55 1 114 70 c63 38 118 67 123 64 4 -3 8
-16 8 -29 0 -51 18 -72 113 -128 122 -74 207 -112 287 -133 36 -9 67 -20 70
-24 3 -5 3 -35 0 -67 -3 -32 -2 -82 3 -112 8 -54 43 -131 59 -131 15 0 30 54
32 122 4 77 19 107 74 141 76 48 153 60 216 33 l33 -14 -4 -101 c-4 -70 -2
-101 6 -101 7 0 11 46 11 145 0 80 -2 145 -5 145 -3 0 -77 -18 -164 -40 -87
-22 -163 -40 -168 -40 -17 0 -3 37 24 64 24 24 34 27 157 41 55 7 69 12 61 25
-6 9 -117 64 -246 120 -47 21 -132 61 -189 90 -57 29 -122 58 -144 64 -63 19
-154 18 -216 -3z m-199 -779 c-76 -64 -256 -202 -263 -202 -5 0 -8 14 -8 30 0
61 110 153 228 191 84 26 92 23 43 -19z m-31 -68 c0 -2 -9 -4 -21 -4 -11 0
-18 4 -14 10 5 8 35 3 35 -6z m984 -202 c-79 -10 -131 28 -186 133 -28 55 -31
67 -18 75 11 7 40 -17 123 -98 102 -101 107 -107 81 -110z m-491 -76 c-1 -39
13 -52 127 -114 l42 -23 -34 -26 c-96 -73 -207 -95 -293 -58 l-40 17 50 14
c28 7 71 19 98 25 53 12 55 18 28 82 -11 25 -19 61 -18 79 0 18 -3 47 -7 63
l-8 30 28 -27 c21 -20 28 -36 27 -62z m546 -28 l33 -51 -23 -18 c-87 -66 -309
-150 -434 -163 l-60 -7 50 27 c65 34 101 69 122 115 14 34 26 41 97 70 45 18
101 43 125 56 24 12 47 23 50 23 3 0 21 -23 40 -52z m83 1 c0 -17 -5 -36 -11
-42 -7 -7 -9 6 -8 41 1 30 6 47 11 42 5 -5 9 -23 8 -41z m-2101 -96 c72 -34
132 -50 217 -60 31 -3 64 -7 72 -9 8 -1 21 -3 28 -3 11 -1 12 -21 8 -98 -4
-53 -8 -98 -10 -100 -2 -2 -66 21 -142 50 -76 30 -163 62 -191 71 -90 30 -143
117 -143 235 l0 38 48 -47 c27 -26 78 -61 113 -77z m585 52 c-9 -13 -16 -34
-16 -45 0 -11 -7 -23 -15 -26 -8 -3 -17 -15 -21 -26 -4 -15 -8 -17 -14 -8 -5
8 -22 -8 -51 -51 l-43 -63 -8 29 c-4 17 -5 37 -2 47 8 26 162 168 182 168 2 0
-3 -11 -12 -25z m1945 -22 c30 -108 4 -214 -94 -383 -28 -47 -53 -88 -56 -92
-3 -4 -7 18 -7 48 -3 109 -8 113 -139 141 -76 16 -170 61 -206 99 l-22 24 18
67 c32 121 23 113 102 92 115 -30 234 -20 328 28 22 12 45 21 51 22 6 1 17
-20 25 -46z m-2023 -173 c-6 -22 -16 -40 -24 -40 -8 0 -14 3 -14 6 0 8 40 74
45 74 1 0 -2 -18 -7 -40z m1783 -553 c-17 -74 -48 -115 -190 -256 -219 -215
-274 -253 -458 -316 l-98 -34 -33 37 c-97 107 -178 311 -198 497 -3 28 -7 56
-9 63 -2 6 -2 12 0 12 3 0 39 -70 81 -155 86 -176 107 -199 183 -198 152 3
341 98 625 315 50 37 93 68 97 68 4 0 4 -15 0 -33z m-2158 -179 c58 -125 177
-248 320 -328 31 -17 57 -35 57 -38 0 -4 -17 -17 -38 -28 l-37 -22 -65 51
c-179 140 -248 239 -274 390 -7 44 11 31 37 -25z m1116 -194 c47 -86 99 -158
161 -222 37 -38 50 -62 33 -62 -5 0 -26 -16 -48 -36 -97 -86 -186 -133 -264
-139 -46 -3 -338 42 -411 64 -19 6 -80 28 -134 50 l-99 39 63 41 c35 23 66 43
68 46 3 3 -26 37 -64 78 -58 61 -174 227 -159 227 3 0 55 -34 117 -77 62 -42
146 -92 185 -111 64 -30 80 -34 130 -29 38 3 70 -1 93 -10 96 -41 207 -51 271
-25 l27 11 -24 108 c-57 255 -55 246 -42 254 10 6 19 -10 34 -60 11 -38 40
-104 63 -147z"/>
</g>
</svg>
